# xmcd CD database file
#
# Track frame offsets:
#	150
#	31867
#	59209
#	86073
#	122413
#	149910
#	177292
#	210994
#	230813
#
# Disc length: 3229 seconds
#
# Revision: 0
# Processed by: cddbd v1.4PL0 Copyright (c) Steve Scherf et al.
# Submitted via: CDex 1.50beta9
#
DISCID=850c9b09
DTITLE=Heinrich von Kalnein - Perfect World
DYEAR=1998
DGENRE=Jazz
TTITLE0=Perfect World - Intro
TTITLE1=Port Royal
TTITLE2=Bladerunner
TTITLE3=Tiny Tina
TTITLE4=Little beauty
TTITLE5=The sky is the limit
TTITLE6=Kiolu
TTITLE7=Perfect World - Outro
TTITLE8=The end of a love affair
EXTD=YEAR: 1998
EXTT0=
EXTT1=
EXTT2=
EXTT3=
EXTT4=
EXTT5=
EXTT6=
EXTT7=
EXTT8=
PLAYORDER=
